<svg width="3225" height="800" viewBox="0 0 3225 800" fill="none" xmlns="http://www.w3.org/2000/svg">
<path d="M3102.96 208H2545.04V752.001H3102.96V208Z" fill="#EFEFEF"/>
<path d="M3024.01 484.8C3024.01 484.8 2954.56 555.975 2868.89 555.975C2783.23 555.975 2713.78 484.8 2713.78 484.8C2713.78 484.8 2783.23 413.625 2868.89 413.625C2954.56 413.625 3024.01 484.8 3024.01 484.8Z" fill="#FBA026"/>
<path d="M2631.4 426.279L2713.78 484.8L2631.4 543.322V426.279Z" fill="#FBA026"/>
<path d="M2587.39 47.9994H2492.74V207.999H2587.39V47.9994Z" fill="#27AAE1"/>
<path d="M2682.05 47.9994H2587.39V207.999H2682.05V47.9994Z" fill="#27AAE1"/>
<path d="M2776.68 47.9994H2682.03V207.999H2776.68V47.9994Z" fill="#27AAE1"/>
<path d="M2871.34 47.9994H2776.68V207.999H2871.34V47.9994Z" fill="#27AAE1"/>
<path d="M2965.97 47.9994H2871.32V207.999H2965.97V47.9994Z" fill="#27AAE1"/>
<path d="M3060.62 47.9994H2965.97V207.999H3060.62V47.9994Z" fill="#27AAE1"/>
<path d="M3155.26 47.9994H3060.61V207.999H3155.26V47.9994Z" fill="#27AAE1"/>
<path d="M3037 495.473C3042.92 489.398 3042.92 480.201 3037 474.126C3033.95 471.002 2961.29 397.625 2868.89 397.625C2796.71 397.625 2736.58 442.405 2712.27 463.491L2642.07 413.626C2636.81 409.891 2629.7 409.229 2623.72 411.914C2617.75 414.604 2613.97 420.175 2613.97 426.28V543.32C2613.97 549.424 2617.75 554.997 2623.72 557.687C2626.16 558.782 2628.78 559.32 2631.4 559.32C2635.19 559.32 2638.96 558.184 2642.07 555.973L2712.27 506.108C2736.58 527.193 2796.71 571.974 2868.89 571.974C2961.29 571.972 3033.95 498.597 3037 495.473ZM2648.84 510.7V458.897L2685.3 484.8L2648.84 510.7ZM2868.89 539.972C2811.51 539.972 2760.73 503.414 2738.57 484.777C2760.67 466.125 2811.29 429.624 2868.89 429.624C2926.27 429.624 2977.04 466.172 2999.22 484.82C2977.11 503.474 2926.5 539.972 2868.89 539.972Z" fill="#231F20"/>
<path d="M2946.71 640.001H2940.61C2930.98 640.001 2923.17 647.165 2923.17 656C2923.17 664.835 2930.98 671.999 2940.61 671.999H2946.71C2956.34 671.999 2964.14 664.835 2964.14 656C2964.14 647.165 2956.34 640.001 2946.71 640.001Z" fill="#231F20"/>
<path d="M3155.26 32H2492.74C2483.11 32 2475.31 39.1645 2475.31 47.9994V207.999C2475.31 216.834 2483.11 223.998 2492.74 223.998H2527.61V752.001C2527.61 760.835 2535.41 768 2545.04 768H3102.96C3112.59 768 3120.39 760.835 3120.39 752.001V224H3155.26C3164.89 224 3172.69 216.835 3172.69 208V47.9994C3172.7 39.1645 3164.89 32 3155.26 32ZM3043.18 192H2983.4V64.0002H3043.18V192ZM2948.54 192H2888.76V64.0002H2948.54V192ZM2853.89 192H2794.11V64.0002H2853.89V192ZM2759.24 192H2699.46V64.0002H2759.24V192ZM2664.6 192H2604.82V64.0002H2664.6V192ZM2510.17 64.0002H2569.95V192H2510.17V64.0002ZM2562.48 736V671.999H2859.53C2869.16 671.999 2876.97 664.835 2876.97 656C2876.97 647.165 2869.16 640.001 2859.53 640.001H2562.48V320H3085.52V640.001H3018.19C3008.56 640.001 3000.75 647.165 3000.75 656C3000.75 664.835 3008.56 671.999 3018.19 671.999H3085.52V736H2562.48ZM3085.52 288H2562.48V224H3085.52V288H3085.52ZM3137.83 192H3078.05V64.0002H3137.83V192Z" fill="#231F20"/>
<g clip-path="url(#clip0_1_90)">
<path d="M1921.51 733.264C1921.51 769.969 1891.48 800 1854.78 800H1320.89C1284.18 800 1254.15 769.969 1254.15 733.264C1254.15 708.238 1267.5 686.549 1287.52 676.537C1264.16 549.739 1262.5 499.687 1284.18 379.561C1287.52 359.54 1292.53 337.852 1297.53 312.825C1491.07 274.451 1684.6 274.451 1876.47 312.825C1881.47 337.85 1886.48 359.54 1889.81 379.561C1911.5 499.687 1911.5 549.739 1886.48 676.537C1908.17 688.216 1921.51 708.237 1921.51 733.264Z" fill="#FF7058"/>
<path d="M1848.1 371.22C1676.26 399.582 1499.41 399.582 1327.56 371.22C1312.55 369.551 1299.2 361.21 1290.86 351.199C1289.19 361.209 1287.52 371.22 1285.85 379.561C1297.53 387.903 1310.88 392.908 1324.23 396.245C1410.98 411.261 1501.08 417.935 1589.5 417.935C1677.93 417.935 1766.35 411.261 1853.11 396.245C1868.13 394.577 1879.8 387.904 1891.48 379.561C1889.82 371.218 1888.15 361.209 1886.48 351.199C1876.47 361.209 1863.12 367.883 1848.1 371.22Z" fill="#ED4A3A"/>
<path d="M1347.58 252.763C1507.75 279.457 1669.58 279.457 1829.75 252.763C1841.43 251.094 1851.44 252.763 1861.45 256.1C1863.12 239.416 1858.11 216.058 1844.77 202.711L1679.6 37.5388C1629.54 -12.5134 1547.79 -12.5134 1497.74 37.5388L1332.57 202.711C1319.22 216.058 1314.21 239.416 1315.88 256.1C1324.23 251.094 1335.9 251.094 1347.58 252.763Z" fill="#F2F2F2"/>
<path d="M1689.61 523.045C1661.24 523.045 1636.22 534.724 1616.2 553.076C1617.87 526.382 1607.86 498.018 1586.17 476.33C1564.48 498.02 1556.13 524.714 1556.13 553.076C1537.78 534.724 1511.09 523.045 1482.72 523.045C1482.72 576.434 1524.43 621.481 1576.15 624.818V646.508H1592.84V624.818C1649.56 621.479 1689.61 578.101 1689.61 523.045Z" fill="white"/>
<path d="M1936.53 297.809C1928.19 261.104 1893.15 239.416 1856.45 244.42C1677.93 274.451 1496.07 274.451 1317.55 244.42C1280.85 237.746 1245.81 261.104 1237.47 297.809C1229.13 334.515 1255.82 369.551 1295.86 376.224C1487.73 407.924 1684.6 407.924 1878.13 376.224C1918.18 369.551 1944.87 332.846 1936.53 297.809Z" fill="#FFD15C"/>
</g>
<path d="M25 542.75C25 542.75 100 650 225 650V501.25C85.75 508.25 25 542.75 25 542.75Z" fill="#90A4AE"/>
<path d="M275 500C257.25 500 240.75 500 225 501.25V650C350 650 675 575 675 575V525C675 525 450 500 275 500Z" fill="#A0B1BA"/>
<path d="M150 600C170.711 600 187.5 583.211 187.5 562.5C187.5 541.789 170.711 525 150 525C129.289 525 112.5 541.789 112.5 562.5C112.5 583.211 129.289 600 150 600Z" fill="#AEBCC4"/>
<path d="M150 587.5C163.807 587.5 175 576.307 175 562.5C175 548.693 163.807 537.5 150 537.5C136.193 537.5 125 548.693 125 562.5C125 576.307 136.193 587.5 150 587.5Z" fill="#546E7A"/>
<path d="M675 525L775 500V600L675 575V525Z" fill="#78909C"/>
<path d="M350 650H275C268.37 650 262.011 647.366 257.322 642.678C252.634 637.989 250 631.63 250 625C250 618.37 252.634 612.011 257.322 607.322C262.011 602.634 268.37 600 275 600H350C356.63 600 362.989 602.634 367.678 607.322C372.366 612.011 375 618.37 375 625C375 631.63 372.366 637.989 367.678 642.678C362.989 647.366 356.63 650 350 650Z" fill="#78909C"/>
<path d="M25 192.75C25 192.75 100 300 225 300V151.25C85.75 158.25 25 192.75 25 192.75Z" fill="#90A4AE"/>
<path d="M275 150C257.25 150 240.75 150 225 151.25V300C350 300 675 225 675 225V175C675 175 450 150 275 150Z" fill="#A0B1BA"/>
<path d="M150 250C170.711 250 187.5 233.211 187.5 212.5C187.5 191.789 170.711 175 150 175C129.289 175 112.5 191.789 112.5 212.5C112.5 233.211 129.289 250 150 250Z" fill="#AEBCC4"/>
<path d="M150 237.5C163.807 237.5 175 226.307 175 212.5C175 198.693 163.807 187.5 150 187.5C136.193 187.5 125 198.693 125 212.5C125 226.307 136.193 237.5 150 237.5Z" fill="#546E7A"/>
<path d="M675 175L775 150V250L675 225V175Z" fill="#78909C"/>
<path d="M350 300H275C268.37 300 262.011 297.366 257.322 292.678C252.634 287.989 250 281.63 250 275C250 268.37 252.634 262.011 257.322 257.322C262.011 252.634 268.37 250 275 250H350C356.63 250 362.989 252.634 367.678 257.322C372.366 262.011 375 268.37 375 275C375 281.63 372.366 287.989 367.678 292.678C362.989 297.366 356.63 300 350 300Z" fill="#78909C"/>
<defs>
<clipPath id="clip0_1_90">
<rect width="800" height="800" fill="white" transform="translate(1187)"/>
</clipPath>
</defs>
</svg>
